<mxfile host="app.diagrams.net" modified="2024-06-02T07:13:33.563Z" agent="Mozilla/5.0 (Windows NT 10.0; Win64; x64) AppleWebKit/537.36 (KHTML, like Gecko) Chrome/81.0.4044.113 Safari/537.36" etag="NbGFIO2ra5naavypF0qL" version="24.4.13" type="github">
  <diagram name="Page-1" id="2ca16b54-16f6-2749-3443-fa8db7711227">
    <mxGraphModel dx="1262" dy="608" grid="1" gridSize="10" guides="1" tooltips="1" connect="1" arrows="1" fold="1" page="1" pageScale="1" pageWidth="1100" pageHeight="850" background="none" math="0" shadow="0">
      <root>
        <mxCell id="0" />
        <mxCell id="1" parent="0" />
        <mxCell id="6fJdbJP1uXo22ZdgHqnH-274" value="" style="shape=table;startSize=0;container=1;collapsible=0;childLayout=tableLayout;" vertex="1" parent="1">
          <mxGeometry x="790" y="10" width="610" height="710" as="geometry" />
        </mxCell>
        <mxCell id="6fJdbJP1uXo22ZdgHqnH-275" value="" style="shape=tableRow;horizontal=0;startSize=0;swimlaneHead=0;swimlaneBody=0;strokeColor=inherit;top=0;left=0;bottom=0;right=0;collapsible=0;dropTarget=0;fillColor=none;points=[[0,0.5],[1,0.5]];portConstraint=eastwest;" vertex="1" parent="6fJdbJP1uXo22ZdgHqnH-274">
          <mxGeometry width="610" height="43" as="geometry" />
        </mxCell>
        <mxCell id="6fJdbJP1uXo22ZdgHqnH-276" value="&lt;b&gt;redisObject（key固定使用SDS结构，value结构具备灵活性，会根据数据的更改而更改数据结构）&lt;/b&gt;" style="shape=partialRectangle;html=1;whiteSpace=wrap;connectable=0;strokeColor=#d6b656;overflow=hidden;fillColor=#fff2cc;top=0;left=0;bottom=0;right=0;pointerEvents=1;" vertex="1" parent="6fJdbJP1uXo22ZdgHqnH-275">
          <mxGeometry width="610" height="43" as="geometry">
            <mxRectangle width="610" height="43" as="alternateBounds" />
          </mxGeometry>
        </mxCell>
        <mxCell id="6fJdbJP1uXo22ZdgHqnH-277" value="" style="shape=tableRow;horizontal=0;startSize=0;swimlaneHead=0;swimlaneBody=0;strokeColor=inherit;top=0;left=0;bottom=0;right=0;collapsible=0;dropTarget=0;fillColor=none;points=[[0,0.5],[1,0.5]];portConstraint=eastwest;" vertex="1" parent="6fJdbJP1uXo22ZdgHqnH-274">
          <mxGeometry y="43" width="610" height="667" as="geometry" />
        </mxCell>
        <mxCell id="6fJdbJP1uXo22ZdgHqnH-278" value="" style="shape=partialRectangle;html=1;whiteSpace=wrap;connectable=0;strokeColor=inherit;overflow=hidden;fillColor=none;top=0;left=0;bottom=0;right=0;pointerEvents=1;" vertex="1" parent="6fJdbJP1uXo22ZdgHqnH-277">
          <mxGeometry width="610" height="667" as="geometry">
            <mxRectangle width="610" height="667" as="alternateBounds" />
          </mxGeometry>
        </mxCell>
        <mxCell id="6fJdbJP1uXo22ZdgHqnH-50" value="" style="shape=table;startSize=0;container=1;collapsible=0;childLayout=tableLayout;" vertex="1" parent="1">
          <mxGeometry y="130" width="90" height="150" as="geometry" />
        </mxCell>
        <mxCell id="6fJdbJP1uXo22ZdgHqnH-51" value="" style="shape=tableRow;horizontal=0;startSize=0;swimlaneHead=0;swimlaneBody=0;strokeColor=inherit;top=0;left=0;bottom=0;right=0;collapsible=0;dropTarget=0;fillColor=none;points=[[0,0.5],[1,0.5]];portConstraint=eastwest;" vertex="1" parent="6fJdbJP1uXo22ZdgHqnH-50">
          <mxGeometry width="90" height="30" as="geometry" />
        </mxCell>
        <mxCell id="6fJdbJP1uXo22ZdgHqnH-52" value="&lt;b&gt;redisServer&lt;/b&gt;" style="shape=partialRectangle;html=1;whiteSpace=wrap;connectable=0;strokeColor=#d6b656;overflow=hidden;fillColor=#fff2cc;top=0;left=0;bottom=0;right=0;pointerEvents=1;" vertex="1" parent="6fJdbJP1uXo22ZdgHqnH-51">
          <mxGeometry width="90" height="30" as="geometry">
            <mxRectangle width="90" height="30" as="alternateBounds" />
          </mxGeometry>
        </mxCell>
        <mxCell id="6fJdbJP1uXo22ZdgHqnH-53" value="" style="shape=tableRow;horizontal=0;startSize=0;swimlaneHead=0;swimlaneBody=0;strokeColor=inherit;top=0;left=0;bottom=0;right=0;collapsible=0;dropTarget=0;fillColor=none;points=[[0,0.5],[1,0.5]];portConstraint=eastwest;" vertex="1" parent="6fJdbJP1uXo22ZdgHqnH-50">
          <mxGeometry y="30" width="90" height="40" as="geometry" />
        </mxCell>
        <mxCell id="6fJdbJP1uXo22ZdgHqnH-54" value="redisDb *db" style="shape=partialRectangle;html=1;whiteSpace=wrap;connectable=0;strokeColor=inherit;overflow=hidden;fillColor=none;top=0;left=0;bottom=0;right=0;pointerEvents=1;" vertex="1" parent="6fJdbJP1uXo22ZdgHqnH-53">
          <mxGeometry width="90" height="40" as="geometry">
            <mxRectangle width="90" height="40" as="alternateBounds" />
          </mxGeometry>
        </mxCell>
        <mxCell id="6fJdbJP1uXo22ZdgHqnH-55" value="" style="shape=tableRow;horizontal=0;startSize=0;swimlaneHead=0;swimlaneBody=0;strokeColor=inherit;top=0;left=0;bottom=0;right=0;collapsible=0;dropTarget=0;fillColor=none;points=[[0,0.5],[1,0.5]];portConstraint=eastwest;" vertex="1" parent="6fJdbJP1uXo22ZdgHqnH-50">
          <mxGeometry y="70" width="90" height="40" as="geometry" />
        </mxCell>
        <mxCell id="6fJdbJP1uXo22ZdgHqnH-56" value="int in_fork_child" style="shape=partialRectangle;html=1;whiteSpace=wrap;connectable=0;strokeColor=inherit;overflow=hidden;fillColor=none;top=0;left=0;bottom=0;right=0;pointerEvents=1;" vertex="1" parent="6fJdbJP1uXo22ZdgHqnH-55">
          <mxGeometry width="90" height="40" as="geometry">
            <mxRectangle width="90" height="40" as="alternateBounds" />
          </mxGeometry>
        </mxCell>
        <mxCell id="6fJdbJP1uXo22ZdgHqnH-76" style="shape=tableRow;horizontal=0;startSize=0;swimlaneHead=0;swimlaneBody=0;strokeColor=inherit;top=0;left=0;bottom=0;right=0;collapsible=0;dropTarget=0;fillColor=none;points=[[0,0.5],[1,0.5]];portConstraint=eastwest;" vertex="1" parent="6fJdbJP1uXo22ZdgHqnH-50">
          <mxGeometry y="110" width="90" height="40" as="geometry" />
        </mxCell>
        <mxCell id="6fJdbJP1uXo22ZdgHqnH-77" value="dict *commands" style="shape=partialRectangle;html=1;whiteSpace=wrap;connectable=0;strokeColor=inherit;overflow=hidden;fillColor=none;top=0;left=0;bottom=0;right=0;pointerEvents=1;" vertex="1" parent="6fJdbJP1uXo22ZdgHqnH-76">
          <mxGeometry width="90" height="40" as="geometry">
            <mxRectangle width="90" height="40" as="alternateBounds" />
          </mxGeometry>
        </mxCell>
        <mxCell id="6fJdbJP1uXo22ZdgHqnH-85" value="" style="shape=table;startSize=0;container=1;collapsible=0;childLayout=tableLayout;whiteSpace=wrap;" vertex="1" parent="1">
          <mxGeometry x="150" y="164" width="90" height="108" as="geometry" />
        </mxCell>
        <mxCell id="6fJdbJP1uXo22ZdgHqnH-86" value="" style="shape=tableRow;horizontal=0;startSize=0;swimlaneHead=0;swimlaneBody=0;strokeColor=inherit;top=0;left=0;bottom=0;right=0;collapsible=0;dropTarget=0;fillColor=none;points=[[0,0.5],[1,0.5]];portConstraint=eastwest;" vertex="1" parent="6fJdbJP1uXo22ZdgHqnH-85">
          <mxGeometry width="90" height="28" as="geometry" />
        </mxCell>
        <mxCell id="6fJdbJP1uXo22ZdgHqnH-87" value="&lt;b&gt;redisDb&lt;/b&gt;" style="shape=partialRectangle;html=1;whiteSpace=wrap;connectable=0;strokeColor=#d6b656;overflow=hidden;fillColor=#fff2cc;top=0;left=0;bottom=0;right=0;pointerEvents=1;" vertex="1" parent="6fJdbJP1uXo22ZdgHqnH-86">
          <mxGeometry width="90" height="28" as="geometry">
            <mxRectangle width="90" height="28" as="alternateBounds" />
          </mxGeometry>
        </mxCell>
        <mxCell id="6fJdbJP1uXo22ZdgHqnH-88" value="" style="shape=tableRow;horizontal=0;startSize=0;swimlaneHead=0;swimlaneBody=0;strokeColor=inherit;top=0;left=0;bottom=0;right=0;collapsible=0;dropTarget=0;fillColor=none;points=[[0,0.5],[1,0.5]];portConstraint=eastwest;" vertex="1" parent="6fJdbJP1uXo22ZdgHqnH-85">
          <mxGeometry y="28" width="90" height="40" as="geometry" />
        </mxCell>
        <mxCell id="6fJdbJP1uXo22ZdgHqnH-89" value="dict *dict" style="shape=partialRectangle;html=1;whiteSpace=wrap;connectable=0;strokeColor=inherit;overflow=hidden;fillColor=none;top=0;left=0;bottom=0;right=0;pointerEvents=1;" vertex="1" parent="6fJdbJP1uXo22ZdgHqnH-88">
          <mxGeometry width="90" height="40" as="geometry">
            <mxRectangle width="90" height="40" as="alternateBounds" />
          </mxGeometry>
        </mxCell>
        <mxCell id="6fJdbJP1uXo22ZdgHqnH-90" value="" style="shape=tableRow;horizontal=0;startSize=0;swimlaneHead=0;swimlaneBody=0;strokeColor=inherit;top=0;left=0;bottom=0;right=0;collapsible=0;dropTarget=0;fillColor=none;points=[[0,0.5],[1,0.5]];portConstraint=eastwest;" vertex="1" parent="6fJdbJP1uXo22ZdgHqnH-85">
          <mxGeometry y="68" width="90" height="40" as="geometry" />
        </mxCell>
        <mxCell id="6fJdbJP1uXo22ZdgHqnH-91" value="dict *expires" style="shape=partialRectangle;html=1;whiteSpace=wrap;connectable=0;strokeColor=inherit;overflow=hidden;fillColor=none;top=0;left=0;bottom=0;right=0;pointerEvents=1;" vertex="1" parent="6fJdbJP1uXo22ZdgHqnH-90">
          <mxGeometry width="90" height="40" as="geometry">
            <mxRectangle width="90" height="40" as="alternateBounds" />
          </mxGeometry>
        </mxCell>
        <mxCell id="6fJdbJP1uXo22ZdgHqnH-94" style="edgeStyle=orthogonalEdgeStyle;rounded=0;orthogonalLoop=1;jettySize=auto;html=1;entryX=0;entryY=0.149;entryDx=0;entryDy=0;entryPerimeter=0;exitX=1;exitY=0.5;exitDx=0;exitDy=0;" edge="1" parent="1" source="6fJdbJP1uXo22ZdgHqnH-53" target="6fJdbJP1uXo22ZdgHqnH-85">
          <mxGeometry relative="1" as="geometry" />
        </mxCell>
        <mxCell id="6fJdbJP1uXo22ZdgHqnH-97" value="" style="shape=table;startSize=0;container=1;collapsible=0;childLayout=tableLayout;whiteSpace=wrap;" vertex="1" parent="1">
          <mxGeometry x="280" y="198" width="120" height="148" as="geometry" />
        </mxCell>
        <mxCell id="6fJdbJP1uXo22ZdgHqnH-98" value="" style="shape=tableRow;horizontal=0;startSize=0;swimlaneHead=0;swimlaneBody=0;strokeColor=inherit;top=0;left=0;bottom=0;right=0;collapsible=0;dropTarget=0;fillColor=none;points=[[0,0.5],[1,0.5]];portConstraint=eastwest;" vertex="1" parent="6fJdbJP1uXo22ZdgHqnH-97">
          <mxGeometry width="120" height="28" as="geometry" />
        </mxCell>
        <mxCell id="6fJdbJP1uXo22ZdgHqnH-99" value="dict" style="shape=partialRectangle;html=1;whiteSpace=wrap;connectable=0;strokeColor=#d6b656;overflow=hidden;fillColor=#fff2cc;top=0;left=0;bottom=0;right=0;pointerEvents=1;fontStyle=1" vertex="1" parent="6fJdbJP1uXo22ZdgHqnH-98">
          <mxGeometry width="120" height="28" as="geometry">
            <mxRectangle width="120" height="28" as="alternateBounds" />
          </mxGeometry>
        </mxCell>
        <mxCell id="6fJdbJP1uXo22ZdgHqnH-100" value="" style="shape=tableRow;horizontal=0;startSize=0;swimlaneHead=0;swimlaneBody=0;strokeColor=inherit;top=0;left=0;bottom=0;right=0;collapsible=0;dropTarget=0;fillColor=none;points=[[0,0.5],[1,0.5]];portConstraint=eastwest;whiteSpace=wrap;" vertex="1" parent="6fJdbJP1uXo22ZdgHqnH-97">
          <mxGeometry y="28" width="120" height="40" as="geometry" />
        </mxCell>
        <mxCell id="6fJdbJP1uXo22ZdgHqnH-101" value="dictEntry&amp;nbsp;&lt;span style=&quot;background-color: initial;&quot;&gt;**ht_table[2]&lt;/span&gt;&lt;div&gt;&lt;span style=&quot;background-color: initial;&quot;&gt;//两个链表，便于扩容&lt;/span&gt;&lt;/div&gt;" style="shape=partialRectangle;html=1;connectable=0;strokeColor=inherit;overflow=hidden;fillColor=none;top=0;left=0;bottom=0;right=0;pointerEvents=1;" vertex="1" parent="6fJdbJP1uXo22ZdgHqnH-100">
          <mxGeometry width="120" height="40" as="geometry">
            <mxRectangle width="120" height="40" as="alternateBounds" />
          </mxGeometry>
        </mxCell>
        <mxCell id="6fJdbJP1uXo22ZdgHqnH-102" value="" style="shape=tableRow;horizontal=0;startSize=0;swimlaneHead=0;swimlaneBody=0;strokeColor=inherit;top=0;left=0;bottom=0;right=0;collapsible=0;dropTarget=0;fillColor=none;points=[[0,0.5],[1,0.5]];portConstraint=eastwest;" vertex="1" parent="6fJdbJP1uXo22ZdgHqnH-97">
          <mxGeometry y="68" width="120" height="40" as="geometry" />
        </mxCell>
        <mxCell id="6fJdbJP1uXo22ZdgHqnH-103" value="long ht_used[2]" style="shape=partialRectangle;html=1;whiteSpace=wrap;connectable=0;strokeColor=inherit;overflow=hidden;fillColor=none;top=0;left=0;bottom=0;right=0;pointerEvents=1;" vertex="1" parent="6fJdbJP1uXo22ZdgHqnH-102">
          <mxGeometry width="120" height="40" as="geometry">
            <mxRectangle width="120" height="40" as="alternateBounds" />
          </mxGeometry>
        </mxCell>
        <mxCell id="6fJdbJP1uXo22ZdgHqnH-104" style="shape=tableRow;horizontal=0;startSize=0;swimlaneHead=0;swimlaneBody=0;strokeColor=inherit;top=0;left=0;bottom=0;right=0;collapsible=0;dropTarget=0;fillColor=none;points=[[0,0.5],[1,0.5]];portConstraint=eastwest;" vertex="1" parent="6fJdbJP1uXo22ZdgHqnH-97">
          <mxGeometry y="108" width="120" height="40" as="geometry" />
        </mxCell>
        <mxCell id="6fJdbJP1uXo22ZdgHqnH-105" value="long rehashidx" style="shape=partialRectangle;html=1;whiteSpace=wrap;connectable=0;strokeColor=inherit;overflow=hidden;fillColor=none;top=0;left=0;bottom=0;right=0;pointerEvents=1;" vertex="1" parent="6fJdbJP1uXo22ZdgHqnH-104">
          <mxGeometry width="120" height="40" as="geometry">
            <mxRectangle width="120" height="40" as="alternateBounds" />
          </mxGeometry>
        </mxCell>
        <mxCell id="6fJdbJP1uXo22ZdgHqnH-106" style="edgeStyle=orthogonalEdgeStyle;rounded=0;orthogonalLoop=1;jettySize=auto;html=1;exitX=1;exitY=0.5;exitDx=0;exitDy=0;entryX=0;entryY=0.5;entryDx=0;entryDy=0;" edge="1" parent="1" source="6fJdbJP1uXo22ZdgHqnH-88" target="6fJdbJP1uXo22ZdgHqnH-98">
          <mxGeometry relative="1" as="geometry" />
        </mxCell>
        <mxCell id="6fJdbJP1uXo22ZdgHqnH-107" value="" style="shape=table;startSize=0;container=1;collapsible=0;childLayout=tableLayout;whiteSpace=wrap;" vertex="1" parent="1">
          <mxGeometry x="450" y="222" width="120" height="150" as="geometry" />
        </mxCell>
        <mxCell id="6fJdbJP1uXo22ZdgHqnH-108" value="" style="shape=tableRow;horizontal=0;startSize=0;swimlaneHead=0;swimlaneBody=0;strokeColor=inherit;top=0;left=0;bottom=0;right=0;collapsible=0;dropTarget=0;fillColor=none;points=[[0,0.5],[1,0.5]];portConstraint=eastwest;" vertex="1" parent="6fJdbJP1uXo22ZdgHqnH-107">
          <mxGeometry width="120" height="30" as="geometry" />
        </mxCell>
        <mxCell id="6fJdbJP1uXo22ZdgHqnH-109" value="&lt;span style=&quot;white-space: nowrap;&quot;&gt;&lt;b&gt;dictEntry&lt;/b&gt;&lt;/span&gt;" style="shape=partialRectangle;html=1;whiteSpace=wrap;connectable=0;strokeColor=#d6b656;overflow=hidden;fillColor=#fff2cc;top=0;left=0;bottom=0;right=0;pointerEvents=1;fontStyle=0" vertex="1" parent="6fJdbJP1uXo22ZdgHqnH-108">
          <mxGeometry width="120" height="30" as="geometry">
            <mxRectangle width="120" height="30" as="alternateBounds" />
          </mxGeometry>
        </mxCell>
        <mxCell id="6fJdbJP1uXo22ZdgHqnH-110" value="" style="shape=tableRow;horizontal=0;startSize=0;swimlaneHead=0;swimlaneBody=0;strokeColor=inherit;top=0;left=0;bottom=0;right=0;collapsible=0;dropTarget=0;fillColor=none;points=[[0,0.5],[1,0.5]];portConstraint=eastwest;whiteSpace=wrap;" vertex="1" parent="6fJdbJP1uXo22ZdgHqnH-107">
          <mxGeometry y="30" width="120" height="40" as="geometry" />
        </mxCell>
        <mxCell id="6fJdbJP1uXo22ZdgHqnH-111" value="&lt;font color=&quot;#ff3333&quot;&gt;void&amp;nbsp;*key&lt;/font&gt;&lt;div&gt;//数据类型为String&lt;/div&gt;" style="shape=partialRectangle;html=1;connectable=0;strokeColor=inherit;overflow=hidden;fillColor=none;top=0;left=0;bottom=0;right=0;pointerEvents=1;" vertex="1" parent="6fJdbJP1uXo22ZdgHqnH-110">
          <mxGeometry width="120" height="40" as="geometry">
            <mxRectangle width="120" height="40" as="alternateBounds" />
          </mxGeometry>
        </mxCell>
        <mxCell id="6fJdbJP1uXo22ZdgHqnH-112" value="" style="shape=tableRow;horizontal=0;startSize=0;swimlaneHead=0;swimlaneBody=0;strokeColor=inherit;top=0;left=0;bottom=0;right=0;collapsible=0;dropTarget=0;fillColor=none;points=[[0,0.5],[1,0.5]];portConstraint=eastwest;" vertex="1" parent="6fJdbJP1uXo22ZdgHqnH-107">
          <mxGeometry y="70" width="120" height="40" as="geometry" />
        </mxCell>
        <mxCell id="6fJdbJP1uXo22ZdgHqnH-113" value="&lt;span style=&quot;white-space: nowrap;&quot;&gt;&lt;font color=&quot;#ff3333&quot;&gt;void&amp;nbsp;*value&lt;/font&gt;&lt;/span&gt;&lt;div&gt;&lt;span style=&quot;white-space: nowrap;&quot;&gt;//有多种数据类型&lt;/span&gt;&lt;/div&gt;" style="shape=partialRectangle;html=1;whiteSpace=wrap;connectable=0;strokeColor=inherit;overflow=hidden;fillColor=none;top=0;left=0;bottom=0;right=0;pointerEvents=1;" vertex="1" parent="6fJdbJP1uXo22ZdgHqnH-112">
          <mxGeometry width="120" height="40" as="geometry">
            <mxRectangle width="120" height="40" as="alternateBounds" />
          </mxGeometry>
        </mxCell>
        <mxCell id="6fJdbJP1uXo22ZdgHqnH-114" style="shape=tableRow;horizontal=0;startSize=0;swimlaneHead=0;swimlaneBody=0;strokeColor=inherit;top=0;left=0;bottom=0;right=0;collapsible=0;dropTarget=0;fillColor=none;points=[[0,0.5],[1,0.5]];portConstraint=eastwest;" vertex="1" parent="6fJdbJP1uXo22ZdgHqnH-107">
          <mxGeometry y="110" width="120" height="40" as="geometry" />
        </mxCell>
        <mxCell id="6fJdbJP1uXo22ZdgHqnH-115" value="dictEntry&amp;nbsp;*next&lt;div&gt;//指向下一个数据节点&lt;/div&gt;" style="shape=partialRectangle;html=1;whiteSpace=wrap;connectable=0;strokeColor=inherit;overflow=hidden;fillColor=none;top=0;left=0;bottom=0;right=0;pointerEvents=1;" vertex="1" parent="6fJdbJP1uXo22ZdgHqnH-114">
          <mxGeometry width="120" height="40" as="geometry">
            <mxRectangle width="120" height="40" as="alternateBounds" />
          </mxGeometry>
        </mxCell>
        <mxCell id="6fJdbJP1uXo22ZdgHqnH-117" style="edgeStyle=orthogonalEdgeStyle;rounded=0;orthogonalLoop=1;jettySize=auto;html=1;exitX=1;exitY=0.5;exitDx=0;exitDy=0;entryX=-0.02;entryY=0.159;entryDx=0;entryDy=0;entryPerimeter=0;" edge="1" parent="1" source="6fJdbJP1uXo22ZdgHqnH-100" target="6fJdbJP1uXo22ZdgHqnH-107">
          <mxGeometry relative="1" as="geometry" />
        </mxCell>
        <mxCell id="6fJdbJP1uXo22ZdgHqnH-118" value="&lt;div&gt;&lt;b&gt;&lt;font style=&quot;font-size: 16px;&quot;&gt;&lt;font color=&quot;#ff3333&quot;&gt;常用&lt;/font&gt;redis数据结构图&lt;/font&gt;&lt;/b&gt;&lt;/div&gt;&lt;b&gt;&lt;font style=&quot;font-size: 16px;&quot;&gt;基于redis7.2.5版本（64位系统的linux系统）&lt;/font&gt;&lt;/b&gt;" style="rounded=0;whiteSpace=wrap;html=1;fillColor=#fff2cc;strokeColor=#d6b656;" vertex="1" parent="1">
          <mxGeometry width="350" height="60" as="geometry" />
        </mxCell>
        <mxCell id="6fJdbJP1uXo22ZdgHqnH-119" value="" style="shape=table;startSize=0;container=1;collapsible=0;childLayout=tableLayout;whiteSpace=wrap;" vertex="1" parent="1">
          <mxGeometry x="622" y="257" width="148" height="230" as="geometry" />
        </mxCell>
        <mxCell id="6fJdbJP1uXo22ZdgHqnH-120" value="" style="shape=tableRow;horizontal=0;startSize=0;swimlaneHead=0;swimlaneBody=0;strokeColor=inherit;top=0;left=0;bottom=0;right=0;collapsible=0;dropTarget=0;fillColor=none;points=[[0,0.5],[1,0.5]];portConstraint=eastwest;fontStyle=1" vertex="1" parent="6fJdbJP1uXo22ZdgHqnH-119">
          <mxGeometry width="148" height="30" as="geometry" />
        </mxCell>
        <mxCell id="6fJdbJP1uXo22ZdgHqnH-121" value="&lt;b&gt;redisObject&lt;/b&gt;" style="shape=partialRectangle;html=1;whiteSpace=wrap;connectable=0;strokeColor=#d6b656;overflow=hidden;fillColor=#fff2cc;top=0;left=0;bottom=0;right=0;pointerEvents=1;" vertex="1" parent="6fJdbJP1uXo22ZdgHqnH-120">
          <mxGeometry width="148" height="30" as="geometry">
            <mxRectangle width="148" height="30" as="alternateBounds" />
          </mxGeometry>
        </mxCell>
        <mxCell id="6fJdbJP1uXo22ZdgHqnH-122" value="" style="shape=tableRow;horizontal=0;startSize=0;swimlaneHead=0;swimlaneBody=0;strokeColor=inherit;top=0;left=0;bottom=0;right=0;collapsible=0;dropTarget=0;fillColor=none;points=[[0,0.5],[1,0.5]];portConstraint=eastwest;whiteSpace=wrap;" vertex="1" parent="6fJdbJP1uXo22ZdgHqnH-119">
          <mxGeometry y="30" width="148" height="40" as="geometry" />
        </mxCell>
        <mxCell id="6fJdbJP1uXo22ZdgHqnH-123" value="type:4&lt;div&gt;//4bit，数据的类型&lt;/div&gt;" style="shape=partialRectangle;html=1;connectable=0;strokeColor=#36393d;overflow=hidden;fillColor=#cce5ff;top=0;left=0;bottom=0;right=0;pointerEvents=1;" vertex="1" parent="6fJdbJP1uXo22ZdgHqnH-122">
          <mxGeometry width="148" height="40" as="geometry">
            <mxRectangle width="148" height="40" as="alternateBounds" />
          </mxGeometry>
        </mxCell>
        <mxCell id="6fJdbJP1uXo22ZdgHqnH-124" value="" style="shape=tableRow;horizontal=0;startSize=0;swimlaneHead=0;swimlaneBody=0;strokeColor=inherit;top=0;left=0;bottom=0;right=0;collapsible=0;dropTarget=0;fillColor=none;points=[[0,0.5],[1,0.5]];portConstraint=eastwest;" vertex="1" parent="6fJdbJP1uXo22ZdgHqnH-119">
          <mxGeometry y="70" width="148" height="40" as="geometry" />
        </mxCell>
        <mxCell id="6fJdbJP1uXo22ZdgHqnH-125" value="&lt;span style=&quot;white-space: nowrap;&quot;&gt;encoding:4&lt;/span&gt;&lt;div&gt;&lt;span style=&quot;white-space: nowrap;&quot;&gt;//4bit，数据的编码格式&lt;/span&gt;&lt;/div&gt;" style="shape=partialRectangle;html=1;whiteSpace=wrap;connectable=0;strokeColor=#36393d;overflow=hidden;fillColor=#cdeb8b;top=0;left=0;bottom=0;right=0;pointerEvents=1;" vertex="1" parent="6fJdbJP1uXo22ZdgHqnH-124">
          <mxGeometry width="148" height="40" as="geometry">
            <mxRectangle width="148" height="40" as="alternateBounds" />
          </mxGeometry>
        </mxCell>
        <mxCell id="6fJdbJP1uXo22ZdgHqnH-126" style="shape=tableRow;horizontal=0;startSize=0;swimlaneHead=0;swimlaneBody=0;strokeColor=inherit;top=0;left=0;bottom=0;right=0;collapsible=0;dropTarget=0;fillColor=none;points=[[0,0.5],[1,0.5]];portConstraint=eastwest;" vertex="1" parent="6fJdbJP1uXo22ZdgHqnH-119">
          <mxGeometry y="110" width="148" height="40" as="geometry" />
        </mxCell>
        <mxCell id="6fJdbJP1uXo22ZdgHqnH-127" value="lru:REDIS_LRU_BITS&lt;div&gt;//24bit，访问时间戳和次数&lt;/div&gt;" style="shape=partialRectangle;html=1;whiteSpace=wrap;connectable=0;strokeColor=inherit;overflow=hidden;fillColor=none;top=0;left=0;bottom=0;right=0;pointerEvents=1;" vertex="1" parent="6fJdbJP1uXo22ZdgHqnH-126">
          <mxGeometry width="148" height="40" as="geometry">
            <mxRectangle width="148" height="40" as="alternateBounds" />
          </mxGeometry>
        </mxCell>
        <mxCell id="6fJdbJP1uXo22ZdgHqnH-263" style="shape=tableRow;horizontal=0;startSize=0;swimlaneHead=0;swimlaneBody=0;strokeColor=inherit;top=0;left=0;bottom=0;right=0;collapsible=0;dropTarget=0;fillColor=none;points=[[0,0.5],[1,0.5]];portConstraint=eastwest;" vertex="1" parent="6fJdbJP1uXo22ZdgHqnH-119">
          <mxGeometry y="150" width="148" height="40" as="geometry" />
        </mxCell>
        <mxCell id="6fJdbJP1uXo22ZdgHqnH-264" value="int refcount&lt;div&gt;//32bit，引用计数&lt;/div&gt;" style="shape=partialRectangle;html=1;whiteSpace=wrap;connectable=0;strokeColor=inherit;overflow=hidden;fillColor=none;top=0;left=0;bottom=0;right=0;pointerEvents=1;" vertex="1" parent="6fJdbJP1uXo22ZdgHqnH-263">
          <mxGeometry width="148" height="40" as="geometry">
            <mxRectangle width="148" height="40" as="alternateBounds" />
          </mxGeometry>
        </mxCell>
        <mxCell id="6fJdbJP1uXo22ZdgHqnH-261" style="shape=tableRow;horizontal=0;startSize=0;swimlaneHead=0;swimlaneBody=0;strokeColor=inherit;top=0;left=0;bottom=0;right=0;collapsible=0;dropTarget=0;fillColor=none;points=[[0,0.5],[1,0.5]];portConstraint=eastwest;" vertex="1" parent="6fJdbJP1uXo22ZdgHqnH-119">
          <mxGeometry y="190" width="148" height="40" as="geometry" />
        </mxCell>
        <mxCell id="6fJdbJP1uXo22ZdgHqnH-262" value="void *ptr&lt;div&gt;//32bit，数据真实地址&lt;/div&gt;" style="shape=partialRectangle;html=1;whiteSpace=wrap;connectable=0;strokeColor=inherit;overflow=hidden;fillColor=none;top=0;left=0;bottom=0;right=0;pointerEvents=1;" vertex="1" parent="6fJdbJP1uXo22ZdgHqnH-261">
          <mxGeometry width="148" height="40" as="geometry">
            <mxRectangle width="148" height="40" as="alternateBounds" />
          </mxGeometry>
        </mxCell>
        <mxCell id="6fJdbJP1uXo22ZdgHqnH-128" style="edgeStyle=orthogonalEdgeStyle;rounded=0;orthogonalLoop=1;jettySize=auto;html=1;entryX=0;entryY=0.5;entryDx=0;entryDy=0;" edge="1" parent="1" source="6fJdbJP1uXo22ZdgHqnH-110" target="6fJdbJP1uXo22ZdgHqnH-120">
          <mxGeometry relative="1" as="geometry" />
        </mxCell>
        <mxCell id="6fJdbJP1uXo22ZdgHqnH-129" style="edgeStyle=orthogonalEdgeStyle;rounded=0;orthogonalLoop=1;jettySize=auto;html=1;exitX=1;exitY=0.5;exitDx=0;exitDy=0;entryX=0;entryY=0.5;entryDx=0;entryDy=0;" edge="1" parent="1" source="6fJdbJP1uXo22ZdgHqnH-112" target="6fJdbJP1uXo22ZdgHqnH-120">
          <mxGeometry relative="1" as="geometry" />
        </mxCell>
        <mxCell id="6fJdbJP1uXo22ZdgHqnH-146" value="" style="shape=table;startSize=0;container=1;collapsible=0;childLayout=tableLayout;whiteSpace=wrap;" vertex="1" parent="1">
          <mxGeometry x="800" y="60" width="160" height="120" as="geometry" />
        </mxCell>
        <mxCell id="6fJdbJP1uXo22ZdgHqnH-147" value="" style="shape=tableRow;horizontal=0;startSize=0;swimlaneHead=0;swimlaneBody=0;strokeColor=inherit;top=0;left=0;bottom=0;right=0;collapsible=0;dropTarget=0;fillColor=none;points=[[0,0.5],[1,0.5]];portConstraint=eastwest;fontStyle=1" vertex="1" parent="6fJdbJP1uXo22ZdgHqnH-146">
          <mxGeometry width="160" height="30" as="geometry" />
        </mxCell>
        <mxCell id="6fJdbJP1uXo22ZdgHqnH-148" value="&lt;b&gt;String（SDS，整数编码）&lt;/b&gt;" style="shape=partialRectangle;html=1;whiteSpace=wrap;connectable=0;strokeColor=#d6b656;overflow=hidden;fillColor=#fff2cc;top=0;left=0;bottom=0;right=0;pointerEvents=1;" vertex="1" parent="6fJdbJP1uXo22ZdgHqnH-147">
          <mxGeometry width="160" height="30" as="geometry">
            <mxRectangle width="160" height="30" as="alternateBounds" />
          </mxGeometry>
        </mxCell>
        <mxCell id="6fJdbJP1uXo22ZdgHqnH-149" value="" style="shape=tableRow;horizontal=0;startSize=0;swimlaneHead=0;swimlaneBody=0;strokeColor=inherit;top=0;left=0;bottom=0;right=0;collapsible=0;dropTarget=0;fillColor=none;points=[[0,0.5],[1,0.5]];portConstraint=eastwest;whiteSpace=wrap;" vertex="1" parent="6fJdbJP1uXo22ZdgHqnH-146">
          <mxGeometry y="30" width="160" height="30" as="geometry" />
        </mxCell>
        <mxCell id="6fJdbJP1uXo22ZdgHqnH-150" value="OBJ_STRING" style="shape=partialRectangle;html=1;connectable=0;strokeColor=#36393d;overflow=hidden;fillColor=#cce5ff;top=0;left=0;bottom=0;right=0;pointerEvents=1;" vertex="1" parent="6fJdbJP1uXo22ZdgHqnH-149">
          <mxGeometry width="160" height="30" as="geometry">
            <mxRectangle width="160" height="30" as="alternateBounds" />
          </mxGeometry>
        </mxCell>
        <mxCell id="6fJdbJP1uXo22ZdgHqnH-151" value="" style="shape=tableRow;horizontal=0;startSize=0;swimlaneHead=0;swimlaneBody=0;strokeColor=inherit;top=0;left=0;bottom=0;right=0;collapsible=0;dropTarget=0;fillColor=none;points=[[0,0.5],[1,0.5]];portConstraint=eastwest;" vertex="1" parent="6fJdbJP1uXo22ZdgHqnH-146">
          <mxGeometry y="60" width="160" height="30" as="geometry" />
        </mxCell>
        <mxCell id="6fJdbJP1uXo22ZdgHqnH-152" value="OBJ_ENCODING_INT" style="shape=partialRectangle;html=1;whiteSpace=wrap;connectable=0;strokeColor=#36393d;overflow=hidden;fillColor=#cdeb8b;top=0;left=0;bottom=0;right=0;pointerEvents=1;" vertex="1" parent="6fJdbJP1uXo22ZdgHqnH-151">
          <mxGeometry width="160" height="30" as="geometry">
            <mxRectangle width="160" height="30" as="alternateBounds" />
          </mxGeometry>
        </mxCell>
        <mxCell id="6fJdbJP1uXo22ZdgHqnH-153" style="shape=tableRow;horizontal=0;startSize=0;swimlaneHead=0;swimlaneBody=0;strokeColor=inherit;top=0;left=0;bottom=0;right=0;collapsible=0;dropTarget=0;fillColor=none;points=[[0,0.5],[1,0.5]];portConstraint=eastwest;" vertex="1" parent="6fJdbJP1uXo22ZdgHqnH-146">
          <mxGeometry y="90" width="160" height="30" as="geometry" />
        </mxCell>
        <mxCell id="6fJdbJP1uXo22ZdgHqnH-154" value="void *ptr" style="shape=partialRectangle;html=1;whiteSpace=wrap;connectable=0;strokeColor=inherit;overflow=hidden;fillColor=none;top=0;left=0;bottom=0;right=0;pointerEvents=1;" vertex="1" parent="6fJdbJP1uXo22ZdgHqnH-153">
          <mxGeometry width="160" height="30" as="geometry">
            <mxRectangle width="160" height="30" as="alternateBounds" />
          </mxGeometry>
        </mxCell>
        <mxCell id="6fJdbJP1uXo22ZdgHqnH-155" value="" style="shape=table;startSize=0;container=1;collapsible=0;childLayout=tableLayout;whiteSpace=wrap;" vertex="1" parent="1">
          <mxGeometry x="990" y="60" width="190" height="120" as="geometry" />
        </mxCell>
        <mxCell id="6fJdbJP1uXo22ZdgHqnH-156" value="" style="shape=tableRow;horizontal=0;startSize=0;swimlaneHead=0;swimlaneBody=0;strokeColor=inherit;top=0;left=0;bottom=0;right=0;collapsible=0;dropTarget=0;fillColor=none;points=[[0,0.5],[1,0.5]];portConstraint=eastwest;fontStyle=1" vertex="1" parent="6fJdbJP1uXo22ZdgHqnH-155">
          <mxGeometry width="190" height="30" as="geometry" />
        </mxCell>
        <mxCell id="6fJdbJP1uXo22ZdgHqnH-157" value="&lt;b&gt;String（&lt;/b&gt;&lt;b&gt;SDS，紧凑字符编码&lt;/b&gt;&lt;b&gt;）&lt;/b&gt;" style="shape=partialRectangle;html=1;whiteSpace=wrap;connectable=0;strokeColor=#d6b656;overflow=hidden;fillColor=#fff2cc;top=0;left=0;bottom=0;right=0;pointerEvents=1;" vertex="1" parent="6fJdbJP1uXo22ZdgHqnH-156">
          <mxGeometry width="190" height="30" as="geometry">
            <mxRectangle width="190" height="30" as="alternateBounds" />
          </mxGeometry>
        </mxCell>
        <mxCell id="6fJdbJP1uXo22ZdgHqnH-158" value="" style="shape=tableRow;horizontal=0;startSize=0;swimlaneHead=0;swimlaneBody=0;strokeColor=inherit;top=0;left=0;bottom=0;right=0;collapsible=0;dropTarget=0;fillColor=none;points=[[0,0.5],[1,0.5]];portConstraint=eastwest;whiteSpace=wrap;" vertex="1" parent="6fJdbJP1uXo22ZdgHqnH-155">
          <mxGeometry y="30" width="190" height="30" as="geometry" />
        </mxCell>
        <mxCell id="6fJdbJP1uXo22ZdgHqnH-159" value="OBJ_STRING" style="shape=partialRectangle;html=1;connectable=0;strokeColor=#36393d;overflow=hidden;fillColor=#cce5ff;top=0;left=0;bottom=0;right=0;pointerEvents=1;" vertex="1" parent="6fJdbJP1uXo22ZdgHqnH-158">
          <mxGeometry width="190" height="30" as="geometry">
            <mxRectangle width="190" height="30" as="alternateBounds" />
          </mxGeometry>
        </mxCell>
        <mxCell id="6fJdbJP1uXo22ZdgHqnH-160" value="" style="shape=tableRow;horizontal=0;startSize=0;swimlaneHead=0;swimlaneBody=0;strokeColor=inherit;top=0;left=0;bottom=0;right=0;collapsible=0;dropTarget=0;fillColor=none;points=[[0,0.5],[1,0.5]];portConstraint=eastwest;" vertex="1" parent="6fJdbJP1uXo22ZdgHqnH-155">
          <mxGeometry y="60" width="190" height="30" as="geometry" />
        </mxCell>
        <mxCell id="6fJdbJP1uXo22ZdgHqnH-161" value="OBJ_ENCODING_EMBSTR" style="shape=partialRectangle;html=1;whiteSpace=wrap;connectable=0;strokeColor=#36393d;overflow=hidden;fillColor=#cdeb8b;top=0;left=0;bottom=0;right=0;pointerEvents=1;" vertex="1" parent="6fJdbJP1uXo22ZdgHqnH-160">
          <mxGeometry width="190" height="30" as="geometry">
            <mxRectangle width="190" height="30" as="alternateBounds" />
          </mxGeometry>
        </mxCell>
        <mxCell id="6fJdbJP1uXo22ZdgHqnH-162" style="shape=tableRow;horizontal=0;startSize=0;swimlaneHead=0;swimlaneBody=0;strokeColor=inherit;top=0;left=0;bottom=0;right=0;collapsible=0;dropTarget=0;fillColor=none;points=[[0,0.5],[1,0.5]];portConstraint=eastwest;" vertex="1" parent="6fJdbJP1uXo22ZdgHqnH-155">
          <mxGeometry y="90" width="190" height="30" as="geometry" />
        </mxCell>
        <mxCell id="6fJdbJP1uXo22ZdgHqnH-163" value="void *ptr" style="shape=partialRectangle;html=1;whiteSpace=wrap;connectable=0;strokeColor=inherit;overflow=hidden;fillColor=none;top=0;left=0;bottom=0;right=0;pointerEvents=1;" vertex="1" parent="6fJdbJP1uXo22ZdgHqnH-162">
          <mxGeometry width="190" height="30" as="geometry">
            <mxRectangle width="190" height="30" as="alternateBounds" />
          </mxGeometry>
        </mxCell>
        <mxCell id="6fJdbJP1uXo22ZdgHqnH-164" value="" style="shape=table;startSize=0;container=1;collapsible=0;childLayout=tableLayout;whiteSpace=wrap;" vertex="1" parent="1">
          <mxGeometry x="800" y="198" width="160" height="118" as="geometry" />
        </mxCell>
        <mxCell id="6fJdbJP1uXo22ZdgHqnH-165" value="" style="shape=tableRow;horizontal=0;startSize=0;swimlaneHead=0;swimlaneBody=0;strokeColor=inherit;top=0;left=0;bottom=0;right=0;collapsible=0;dropTarget=0;fillColor=none;points=[[0,0.5],[1,0.5]];portConstraint=eastwest;fontStyle=1" vertex="1" parent="6fJdbJP1uXo22ZdgHqnH-164">
          <mxGeometry width="160" height="30" as="geometry" />
        </mxCell>
        <mxCell id="6fJdbJP1uXo22ZdgHqnH-166" value="&lt;b&gt;List（listpack）&lt;/b&gt;" style="shape=partialRectangle;html=1;whiteSpace=wrap;connectable=0;strokeColor=#d6b656;overflow=hidden;fillColor=#fff2cc;top=0;left=0;bottom=0;right=0;pointerEvents=1;" vertex="1" parent="6fJdbJP1uXo22ZdgHqnH-165">
          <mxGeometry width="160" height="30" as="geometry">
            <mxRectangle width="160" height="30" as="alternateBounds" />
          </mxGeometry>
        </mxCell>
        <mxCell id="6fJdbJP1uXo22ZdgHqnH-167" value="" style="shape=tableRow;horizontal=0;startSize=0;swimlaneHead=0;swimlaneBody=0;strokeColor=inherit;top=0;left=0;bottom=0;right=0;collapsible=0;dropTarget=0;fillColor=none;points=[[0,0.5],[1,0.5]];portConstraint=eastwest;whiteSpace=wrap;" vertex="1" parent="6fJdbJP1uXo22ZdgHqnH-164">
          <mxGeometry y="30" width="160" height="28" as="geometry" />
        </mxCell>
        <mxCell id="6fJdbJP1uXo22ZdgHqnH-168" value="OBJ_LIST" style="shape=partialRectangle;html=1;connectable=0;strokeColor=#36393d;overflow=hidden;fillColor=#cce5ff;top=0;left=0;bottom=0;right=0;pointerEvents=1;" vertex="1" parent="6fJdbJP1uXo22ZdgHqnH-167">
          <mxGeometry width="160" height="28" as="geometry">
            <mxRectangle width="160" height="28" as="alternateBounds" />
          </mxGeometry>
        </mxCell>
        <mxCell id="6fJdbJP1uXo22ZdgHqnH-169" value="" style="shape=tableRow;horizontal=0;startSize=0;swimlaneHead=0;swimlaneBody=0;strokeColor=#36393d;top=0;left=0;bottom=0;right=0;collapsible=0;dropTarget=0;fillColor=#cdeb8b;points=[[0,0.5],[1,0.5]];portConstraint=eastwest;" vertex="1" parent="6fJdbJP1uXo22ZdgHqnH-164">
          <mxGeometry y="58" width="160" height="30" as="geometry" />
        </mxCell>
        <mxCell id="6fJdbJP1uXo22ZdgHqnH-170" value="OBJ_ENCODING_LISTPACK" style="shape=partialRectangle;html=1;whiteSpace=wrap;connectable=0;strokeColor=inherit;overflow=hidden;fillColor=none;top=0;left=0;bottom=0;right=0;pointerEvents=1;" vertex="1" parent="6fJdbJP1uXo22ZdgHqnH-169">
          <mxGeometry width="160" height="30" as="geometry">
            <mxRectangle width="160" height="30" as="alternateBounds" />
          </mxGeometry>
        </mxCell>
        <mxCell id="6fJdbJP1uXo22ZdgHqnH-171" style="shape=tableRow;horizontal=0;startSize=0;swimlaneHead=0;swimlaneBody=0;strokeColor=inherit;top=0;left=0;bottom=0;right=0;collapsible=0;dropTarget=0;fillColor=none;points=[[0,0.5],[1,0.5]];portConstraint=eastwest;" vertex="1" parent="6fJdbJP1uXo22ZdgHqnH-164">
          <mxGeometry y="88" width="160" height="30" as="geometry" />
        </mxCell>
        <mxCell id="6fJdbJP1uXo22ZdgHqnH-172" value="void *ptr" style="shape=partialRectangle;html=1;whiteSpace=wrap;connectable=0;strokeColor=inherit;overflow=hidden;fillColor=none;top=0;left=0;bottom=0;right=0;pointerEvents=1;" vertex="1" parent="6fJdbJP1uXo22ZdgHqnH-171">
          <mxGeometry width="160" height="30" as="geometry">
            <mxRectangle width="160" height="30" as="alternateBounds" />
          </mxGeometry>
        </mxCell>
        <mxCell id="6fJdbJP1uXo22ZdgHqnH-183" value="" style="shape=table;startSize=0;container=1;collapsible=0;childLayout=tableLayout;whiteSpace=wrap;" vertex="1" parent="1">
          <mxGeometry x="800" y="330" width="160" height="120" as="geometry" />
        </mxCell>
        <mxCell id="6fJdbJP1uXo22ZdgHqnH-184" value="" style="shape=tableRow;horizontal=0;startSize=0;swimlaneHead=0;swimlaneBody=0;strokeColor=inherit;top=0;left=0;bottom=0;right=0;collapsible=0;dropTarget=0;fillColor=none;points=[[0,0.5],[1,0.5]];portConstraint=eastwest;fontStyle=1" vertex="1" parent="6fJdbJP1uXo22ZdgHqnH-183">
          <mxGeometry width="160" height="30" as="geometry" />
        </mxCell>
        <mxCell id="6fJdbJP1uXo22ZdgHqnH-185" value="Hash（listpack）" style="shape=partialRectangle;html=1;whiteSpace=wrap;connectable=0;strokeColor=#d6b656;overflow=hidden;fillColor=#fff2cc;top=0;left=0;bottom=0;right=0;pointerEvents=1;fontStyle=1" vertex="1" parent="6fJdbJP1uXo22ZdgHqnH-184">
          <mxGeometry width="160" height="30" as="geometry">
            <mxRectangle width="160" height="30" as="alternateBounds" />
          </mxGeometry>
        </mxCell>
        <mxCell id="6fJdbJP1uXo22ZdgHqnH-186" value="" style="shape=tableRow;horizontal=0;startSize=0;swimlaneHead=0;swimlaneBody=0;strokeColor=inherit;top=0;left=0;bottom=0;right=0;collapsible=0;dropTarget=0;fillColor=none;points=[[0,0.5],[1,0.5]];portConstraint=eastwest;whiteSpace=wrap;" vertex="1" parent="6fJdbJP1uXo22ZdgHqnH-183">
          <mxGeometry y="30" width="160" height="30" as="geometry" />
        </mxCell>
        <mxCell id="6fJdbJP1uXo22ZdgHqnH-187" value="&lt;font face=&quot;ui-monospace, SFMono-Regular, SF Mono, Menlo, Consolas, Liberation Mono, monospace&quot;&gt;&lt;span style=&quot;font-size: 14px;&quot;&gt;OBJ_HASH&lt;/span&gt;&lt;/font&gt;" style="shape=partialRectangle;html=1;connectable=0;strokeColor=#36393d;overflow=hidden;fillColor=#cce5ff;top=0;left=0;bottom=0;right=0;pointerEvents=1;" vertex="1" parent="6fJdbJP1uXo22ZdgHqnH-186">
          <mxGeometry width="160" height="30" as="geometry">
            <mxRectangle width="160" height="30" as="alternateBounds" />
          </mxGeometry>
        </mxCell>
        <mxCell id="6fJdbJP1uXo22ZdgHqnH-188" value="" style="shape=tableRow;horizontal=0;startSize=0;swimlaneHead=0;swimlaneBody=0;strokeColor=inherit;top=0;left=0;bottom=0;right=0;collapsible=0;dropTarget=0;fillColor=none;points=[[0,0.5],[1,0.5]];portConstraint=eastwest;" vertex="1" parent="6fJdbJP1uXo22ZdgHqnH-183">
          <mxGeometry y="60" width="160" height="30" as="geometry" />
        </mxCell>
        <mxCell id="6fJdbJP1uXo22ZdgHqnH-189" value="OBJ_ENCODING_LISTPACK" style="shape=partialRectangle;html=1;whiteSpace=wrap;connectable=0;strokeColor=#36393d;overflow=hidden;fillColor=#cdeb8b;top=0;left=0;bottom=0;right=0;pointerEvents=1;" vertex="1" parent="6fJdbJP1uXo22ZdgHqnH-188">
          <mxGeometry width="160" height="30" as="geometry">
            <mxRectangle width="160" height="30" as="alternateBounds" />
          </mxGeometry>
        </mxCell>
        <mxCell id="6fJdbJP1uXo22ZdgHqnH-190" style="shape=tableRow;horizontal=0;startSize=0;swimlaneHead=0;swimlaneBody=0;strokeColor=inherit;top=0;left=0;bottom=0;right=0;collapsible=0;dropTarget=0;fillColor=none;points=[[0,0.5],[1,0.5]];portConstraint=eastwest;" vertex="1" parent="6fJdbJP1uXo22ZdgHqnH-183">
          <mxGeometry y="90" width="160" height="30" as="geometry" />
        </mxCell>
        <mxCell id="6fJdbJP1uXo22ZdgHqnH-191" value="void *ptr" style="shape=partialRectangle;html=1;whiteSpace=wrap;connectable=0;strokeColor=inherit;overflow=hidden;fillColor=none;top=0;left=0;bottom=0;right=0;pointerEvents=1;" vertex="1" parent="6fJdbJP1uXo22ZdgHqnH-190">
          <mxGeometry width="160" height="30" as="geometry">
            <mxRectangle width="160" height="30" as="alternateBounds" />
          </mxGeometry>
        </mxCell>
        <mxCell id="6fJdbJP1uXo22ZdgHqnH-192" value="" style="shape=table;startSize=0;container=1;collapsible=0;childLayout=tableLayout;whiteSpace=wrap;" vertex="1" parent="1">
          <mxGeometry x="800" y="460" width="160" height="120" as="geometry" />
        </mxCell>
        <mxCell id="6fJdbJP1uXo22ZdgHqnH-193" value="" style="shape=tableRow;horizontal=0;startSize=0;swimlaneHead=0;swimlaneBody=0;strokeColor=inherit;top=0;left=0;bottom=0;right=0;collapsible=0;dropTarget=0;fillColor=none;points=[[0,0.5],[1,0.5]];portConstraint=eastwest;fontStyle=1" vertex="1" parent="6fJdbJP1uXo22ZdgHqnH-192">
          <mxGeometry width="160" height="30" as="geometry" />
        </mxCell>
        <mxCell id="6fJdbJP1uXo22ZdgHqnH-194" value="&lt;b&gt;Set（整数集合）&lt;/b&gt;" style="shape=partialRectangle;html=1;whiteSpace=wrap;connectable=0;strokeColor=#d6b656;overflow=hidden;fillColor=#fff2cc;top=0;left=0;bottom=0;right=0;pointerEvents=1;" vertex="1" parent="6fJdbJP1uXo22ZdgHqnH-193">
          <mxGeometry width="160" height="30" as="geometry">
            <mxRectangle width="160" height="30" as="alternateBounds" />
          </mxGeometry>
        </mxCell>
        <mxCell id="6fJdbJP1uXo22ZdgHqnH-195" value="" style="shape=tableRow;horizontal=0;startSize=0;swimlaneHead=0;swimlaneBody=0;strokeColor=inherit;top=0;left=0;bottom=0;right=0;collapsible=0;dropTarget=0;fillColor=none;points=[[0,0.5],[1,0.5]];portConstraint=eastwest;whiteSpace=wrap;" vertex="1" parent="6fJdbJP1uXo22ZdgHqnH-192">
          <mxGeometry y="30" width="160" height="30" as="geometry" />
        </mxCell>
        <mxCell id="6fJdbJP1uXo22ZdgHqnH-196" value="OBJ_SET" style="shape=partialRectangle;html=1;connectable=0;strokeColor=#36393d;overflow=hidden;fillColor=#cce5ff;top=0;left=0;bottom=0;right=0;pointerEvents=1;" vertex="1" parent="6fJdbJP1uXo22ZdgHqnH-195">
          <mxGeometry width="160" height="30" as="geometry">
            <mxRectangle width="160" height="30" as="alternateBounds" />
          </mxGeometry>
        </mxCell>
        <mxCell id="6fJdbJP1uXo22ZdgHqnH-197" value="" style="shape=tableRow;horizontal=0;startSize=0;swimlaneHead=0;swimlaneBody=0;strokeColor=inherit;top=0;left=0;bottom=0;right=0;collapsible=0;dropTarget=0;fillColor=none;points=[[0,0.5],[1,0.5]];portConstraint=eastwest;" vertex="1" parent="6fJdbJP1uXo22ZdgHqnH-192">
          <mxGeometry y="60" width="160" height="30" as="geometry" />
        </mxCell>
        <mxCell id="6fJdbJP1uXo22ZdgHqnH-198" value="OBJ_ENCODING_INTSET" style="shape=partialRectangle;html=1;whiteSpace=wrap;connectable=0;strokeColor=#36393d;overflow=hidden;fillColor=#cdeb8b;top=0;left=0;bottom=0;right=0;pointerEvents=1;" vertex="1" parent="6fJdbJP1uXo22ZdgHqnH-197">
          <mxGeometry width="160" height="30" as="geometry">
            <mxRectangle width="160" height="30" as="alternateBounds" />
          </mxGeometry>
        </mxCell>
        <mxCell id="6fJdbJP1uXo22ZdgHqnH-199" style="shape=tableRow;horizontal=0;startSize=0;swimlaneHead=0;swimlaneBody=0;strokeColor=inherit;top=0;left=0;bottom=0;right=0;collapsible=0;dropTarget=0;fillColor=none;points=[[0,0.5],[1,0.5]];portConstraint=eastwest;" vertex="1" parent="6fJdbJP1uXo22ZdgHqnH-192">
          <mxGeometry y="90" width="160" height="30" as="geometry" />
        </mxCell>
        <mxCell id="6fJdbJP1uXo22ZdgHqnH-200" value="void *ptr" style="shape=partialRectangle;html=1;whiteSpace=wrap;connectable=0;strokeColor=inherit;overflow=hidden;fillColor=none;top=0;left=0;bottom=0;right=0;pointerEvents=1;" vertex="1" parent="6fJdbJP1uXo22ZdgHqnH-199">
          <mxGeometry width="160" height="30" as="geometry">
            <mxRectangle width="160" height="30" as="alternateBounds" />
          </mxGeometry>
        </mxCell>
        <mxCell id="6fJdbJP1uXo22ZdgHqnH-201" value="" style="shape=table;startSize=0;container=1;collapsible=0;childLayout=tableLayout;whiteSpace=wrap;" vertex="1" parent="1">
          <mxGeometry x="800" y="590" width="160" height="120" as="geometry" />
        </mxCell>
        <mxCell id="6fJdbJP1uXo22ZdgHqnH-202" value="" style="shape=tableRow;horizontal=0;startSize=0;swimlaneHead=0;swimlaneBody=0;strokeColor=inherit;top=0;left=0;bottom=0;right=0;collapsible=0;dropTarget=0;fillColor=none;points=[[0,0.5],[1,0.5]];portConstraint=eastwest;fontStyle=1" vertex="1" parent="6fJdbJP1uXo22ZdgHqnH-201">
          <mxGeometry width="160" height="30" as="geometry" />
        </mxCell>
        <mxCell id="6fJdbJP1uXo22ZdgHqnH-203" value="&lt;b&gt;ZSet（listpack）&lt;/b&gt;" style="shape=partialRectangle;html=1;whiteSpace=wrap;connectable=0;strokeColor=#d6b656;overflow=hidden;fillColor=#fff2cc;top=0;left=0;bottom=0;right=0;pointerEvents=1;" vertex="1" parent="6fJdbJP1uXo22ZdgHqnH-202">
          <mxGeometry width="160" height="30" as="geometry">
            <mxRectangle width="160" height="30" as="alternateBounds" />
          </mxGeometry>
        </mxCell>
        <mxCell id="6fJdbJP1uXo22ZdgHqnH-204" value="" style="shape=tableRow;horizontal=0;startSize=0;swimlaneHead=0;swimlaneBody=0;strokeColor=inherit;top=0;left=0;bottom=0;right=0;collapsible=0;dropTarget=0;fillColor=none;points=[[0,0.5],[1,0.5]];portConstraint=eastwest;whiteSpace=wrap;" vertex="1" parent="6fJdbJP1uXo22ZdgHqnH-201">
          <mxGeometry y="30" width="160" height="30" as="geometry" />
        </mxCell>
        <mxCell id="6fJdbJP1uXo22ZdgHqnH-205" value="OBJ_ZSET" style="shape=partialRectangle;html=1;connectable=0;strokeColor=#36393d;overflow=hidden;fillColor=#cce5ff;top=0;left=0;bottom=0;right=0;pointerEvents=1;" vertex="1" parent="6fJdbJP1uXo22ZdgHqnH-204">
          <mxGeometry width="160" height="30" as="geometry">
            <mxRectangle width="160" height="30" as="alternateBounds" />
          </mxGeometry>
        </mxCell>
        <mxCell id="6fJdbJP1uXo22ZdgHqnH-206" value="" style="shape=tableRow;horizontal=0;startSize=0;swimlaneHead=0;swimlaneBody=0;strokeColor=inherit;top=0;left=0;bottom=0;right=0;collapsible=0;dropTarget=0;fillColor=none;points=[[0,0.5],[1,0.5]];portConstraint=eastwest;" vertex="1" parent="6fJdbJP1uXo22ZdgHqnH-201">
          <mxGeometry y="60" width="160" height="30" as="geometry" />
        </mxCell>
        <mxCell id="6fJdbJP1uXo22ZdgHqnH-207" value="OBJ_ENCODING_LISTPACK" style="shape=partialRectangle;html=1;whiteSpace=wrap;connectable=0;strokeColor=#36393d;overflow=hidden;fillColor=#cdeb8b;top=0;left=0;bottom=0;right=0;pointerEvents=1;" vertex="1" parent="6fJdbJP1uXo22ZdgHqnH-206">
          <mxGeometry width="160" height="30" as="geometry">
            <mxRectangle width="160" height="30" as="alternateBounds" />
          </mxGeometry>
        </mxCell>
        <mxCell id="6fJdbJP1uXo22ZdgHqnH-208" style="shape=tableRow;horizontal=0;startSize=0;swimlaneHead=0;swimlaneBody=0;strokeColor=inherit;top=0;left=0;bottom=0;right=0;collapsible=0;dropTarget=0;fillColor=none;points=[[0,0.5],[1,0.5]];portConstraint=eastwest;" vertex="1" parent="6fJdbJP1uXo22ZdgHqnH-201">
          <mxGeometry y="90" width="160" height="30" as="geometry" />
        </mxCell>
        <mxCell id="6fJdbJP1uXo22ZdgHqnH-209" value="void *ptr" style="shape=partialRectangle;html=1;whiteSpace=wrap;connectable=0;strokeColor=inherit;overflow=hidden;fillColor=none;top=0;left=0;bottom=0;right=0;pointerEvents=1;" vertex="1" parent="6fJdbJP1uXo22ZdgHqnH-208">
          <mxGeometry width="160" height="30" as="geometry">
            <mxRectangle width="160" height="30" as="alternateBounds" />
          </mxGeometry>
        </mxCell>
        <mxCell id="6fJdbJP1uXo22ZdgHqnH-211" value="" style="shape=table;startSize=0;container=1;collapsible=0;childLayout=tableLayout;whiteSpace=wrap;" vertex="1" parent="1">
          <mxGeometry x="990" y="330" width="190" height="120" as="geometry" />
        </mxCell>
        <mxCell id="6fJdbJP1uXo22ZdgHqnH-212" value="" style="shape=tableRow;horizontal=0;startSize=0;swimlaneHead=0;swimlaneBody=0;strokeColor=inherit;top=0;left=0;bottom=0;right=0;collapsible=0;dropTarget=0;fillColor=none;points=[[0,0.5],[1,0.5]];portConstraint=eastwest;fontStyle=1" vertex="1" parent="6fJdbJP1uXo22ZdgHqnH-211">
          <mxGeometry width="190" height="30" as="geometry" />
        </mxCell>
        <mxCell id="6fJdbJP1uXo22ZdgHqnH-213" value="Hash（链表）" style="shape=partialRectangle;html=1;whiteSpace=wrap;connectable=0;strokeColor=#d6b656;overflow=hidden;fillColor=#fff2cc;top=0;left=0;bottom=0;right=0;pointerEvents=1;fontStyle=1" vertex="1" parent="6fJdbJP1uXo22ZdgHqnH-212">
          <mxGeometry width="190" height="30" as="geometry">
            <mxRectangle width="190" height="30" as="alternateBounds" />
          </mxGeometry>
        </mxCell>
        <mxCell id="6fJdbJP1uXo22ZdgHqnH-214" value="" style="shape=tableRow;horizontal=0;startSize=0;swimlaneHead=0;swimlaneBody=0;strokeColor=inherit;top=0;left=0;bottom=0;right=0;collapsible=0;dropTarget=0;fillColor=none;points=[[0,0.5],[1,0.5]];portConstraint=eastwest;whiteSpace=wrap;" vertex="1" parent="6fJdbJP1uXo22ZdgHqnH-211">
          <mxGeometry y="30" width="190" height="30" as="geometry" />
        </mxCell>
        <mxCell id="6fJdbJP1uXo22ZdgHqnH-215" value="&lt;font face=&quot;ui-monospace, SFMono-Regular, SF Mono, Menlo, Consolas, Liberation Mono, monospace&quot;&gt;&lt;span style=&quot;font-size: 14px;&quot;&gt;OBJ_HASH&lt;/span&gt;&lt;/font&gt;" style="shape=partialRectangle;html=1;connectable=0;strokeColor=#36393d;overflow=hidden;fillColor=#cce5ff;top=0;left=0;bottom=0;right=0;pointerEvents=1;" vertex="1" parent="6fJdbJP1uXo22ZdgHqnH-214">
          <mxGeometry width="190" height="30" as="geometry">
            <mxRectangle width="190" height="30" as="alternateBounds" />
          </mxGeometry>
        </mxCell>
        <mxCell id="6fJdbJP1uXo22ZdgHqnH-216" value="" style="shape=tableRow;horizontal=0;startSize=0;swimlaneHead=0;swimlaneBody=0;strokeColor=inherit;top=0;left=0;bottom=0;right=0;collapsible=0;dropTarget=0;fillColor=none;points=[[0,0.5],[1,0.5]];portConstraint=eastwest;" vertex="1" parent="6fJdbJP1uXo22ZdgHqnH-211">
          <mxGeometry y="60" width="190" height="30" as="geometry" />
        </mxCell>
        <mxCell id="6fJdbJP1uXo22ZdgHqnH-217" value="OBJ_ENCODING_HT" style="shape=partialRectangle;html=1;whiteSpace=wrap;connectable=0;strokeColor=#36393d;overflow=hidden;fillColor=#cdeb8b;top=0;left=0;bottom=0;right=0;pointerEvents=1;" vertex="1" parent="6fJdbJP1uXo22ZdgHqnH-216">
          <mxGeometry width="190" height="30" as="geometry">
            <mxRectangle width="190" height="30" as="alternateBounds" />
          </mxGeometry>
        </mxCell>
        <mxCell id="6fJdbJP1uXo22ZdgHqnH-218" style="shape=tableRow;horizontal=0;startSize=0;swimlaneHead=0;swimlaneBody=0;strokeColor=inherit;top=0;left=0;bottom=0;right=0;collapsible=0;dropTarget=0;fillColor=none;points=[[0,0.5],[1,0.5]];portConstraint=eastwest;" vertex="1" parent="6fJdbJP1uXo22ZdgHqnH-211">
          <mxGeometry y="90" width="190" height="30" as="geometry" />
        </mxCell>
        <mxCell id="6fJdbJP1uXo22ZdgHqnH-219" value="void *ptr" style="shape=partialRectangle;html=1;whiteSpace=wrap;connectable=0;strokeColor=inherit;overflow=hidden;fillColor=none;top=0;left=0;bottom=0;right=0;pointerEvents=1;" vertex="1" parent="6fJdbJP1uXo22ZdgHqnH-218">
          <mxGeometry width="190" height="30" as="geometry">
            <mxRectangle width="190" height="30" as="alternateBounds" />
          </mxGeometry>
        </mxCell>
        <mxCell id="6fJdbJP1uXo22ZdgHqnH-220" value="" style="shape=table;startSize=0;container=1;collapsible=0;childLayout=tableLayout;whiteSpace=wrap;" vertex="1" parent="1">
          <mxGeometry x="990" y="460" width="190" height="120" as="geometry" />
        </mxCell>
        <mxCell id="6fJdbJP1uXo22ZdgHqnH-221" value="" style="shape=tableRow;horizontal=0;startSize=0;swimlaneHead=0;swimlaneBody=0;strokeColor=inherit;top=0;left=0;bottom=0;right=0;collapsible=0;dropTarget=0;fillColor=none;points=[[0,0.5],[1,0.5]];portConstraint=eastwest;fontStyle=1" vertex="1" parent="6fJdbJP1uXo22ZdgHqnH-220">
          <mxGeometry width="190" height="30" as="geometry" />
        </mxCell>
        <mxCell id="6fJdbJP1uXo22ZdgHqnH-222" value="&lt;b&gt;Set（链表）&lt;/b&gt;" style="shape=partialRectangle;html=1;whiteSpace=wrap;connectable=0;strokeColor=#d6b656;overflow=hidden;fillColor=#fff2cc;top=0;left=0;bottom=0;right=0;pointerEvents=1;" vertex="1" parent="6fJdbJP1uXo22ZdgHqnH-221">
          <mxGeometry width="190" height="30" as="geometry">
            <mxRectangle width="190" height="30" as="alternateBounds" />
          </mxGeometry>
        </mxCell>
        <mxCell id="6fJdbJP1uXo22ZdgHqnH-223" value="" style="shape=tableRow;horizontal=0;startSize=0;swimlaneHead=0;swimlaneBody=0;strokeColor=inherit;top=0;left=0;bottom=0;right=0;collapsible=0;dropTarget=0;fillColor=none;points=[[0,0.5],[1,0.5]];portConstraint=eastwest;whiteSpace=wrap;" vertex="1" parent="6fJdbJP1uXo22ZdgHqnH-220">
          <mxGeometry y="30" width="190" height="30" as="geometry" />
        </mxCell>
        <mxCell id="6fJdbJP1uXo22ZdgHqnH-224" value="OBJ_SET" style="shape=partialRectangle;html=1;connectable=0;strokeColor=#36393d;overflow=hidden;fillColor=#cce5ff;top=0;left=0;bottom=0;right=0;pointerEvents=1;" vertex="1" parent="6fJdbJP1uXo22ZdgHqnH-223">
          <mxGeometry width="190" height="30" as="geometry">
            <mxRectangle width="190" height="30" as="alternateBounds" />
          </mxGeometry>
        </mxCell>
        <mxCell id="6fJdbJP1uXo22ZdgHqnH-225" value="" style="shape=tableRow;horizontal=0;startSize=0;swimlaneHead=0;swimlaneBody=0;strokeColor=inherit;top=0;left=0;bottom=0;right=0;collapsible=0;dropTarget=0;fillColor=none;points=[[0,0.5],[1,0.5]];portConstraint=eastwest;" vertex="1" parent="6fJdbJP1uXo22ZdgHqnH-220">
          <mxGeometry y="60" width="190" height="30" as="geometry" />
        </mxCell>
        <mxCell id="6fJdbJP1uXo22ZdgHqnH-226" value="OBJ_ENCODING_HT" style="shape=partialRectangle;html=1;whiteSpace=wrap;connectable=0;strokeColor=#36393d;overflow=hidden;fillColor=#cdeb8b;top=0;left=0;bottom=0;right=0;pointerEvents=1;" vertex="1" parent="6fJdbJP1uXo22ZdgHqnH-225">
          <mxGeometry width="190" height="30" as="geometry">
            <mxRectangle width="190" height="30" as="alternateBounds" />
          </mxGeometry>
        </mxCell>
        <mxCell id="6fJdbJP1uXo22ZdgHqnH-227" style="shape=tableRow;horizontal=0;startSize=0;swimlaneHead=0;swimlaneBody=0;strokeColor=inherit;top=0;left=0;bottom=0;right=0;collapsible=0;dropTarget=0;fillColor=none;points=[[0,0.5],[1,0.5]];portConstraint=eastwest;" vertex="1" parent="6fJdbJP1uXo22ZdgHqnH-220">
          <mxGeometry y="90" width="190" height="30" as="geometry" />
        </mxCell>
        <mxCell id="6fJdbJP1uXo22ZdgHqnH-228" value="void *ptr" style="shape=partialRectangle;html=1;whiteSpace=wrap;connectable=0;strokeColor=inherit;overflow=hidden;fillColor=none;top=0;left=0;bottom=0;right=0;pointerEvents=1;" vertex="1" parent="6fJdbJP1uXo22ZdgHqnH-227">
          <mxGeometry width="190" height="30" as="geometry">
            <mxRectangle width="190" height="30" as="alternateBounds" />
          </mxGeometry>
        </mxCell>
        <mxCell id="6fJdbJP1uXo22ZdgHqnH-229" value="" style="shape=table;startSize=0;container=1;collapsible=0;childLayout=tableLayout;whiteSpace=wrap;" vertex="1" parent="1">
          <mxGeometry x="990" y="590" width="190" height="120" as="geometry" />
        </mxCell>
        <mxCell id="6fJdbJP1uXo22ZdgHqnH-230" value="" style="shape=tableRow;horizontal=0;startSize=0;swimlaneHead=0;swimlaneBody=0;strokeColor=inherit;top=0;left=0;bottom=0;right=0;collapsible=0;dropTarget=0;fillColor=none;points=[[0,0.5],[1,0.5]];portConstraint=eastwest;fontStyle=1" vertex="1" parent="6fJdbJP1uXo22ZdgHqnH-229">
          <mxGeometry width="190" height="30" as="geometry" />
        </mxCell>
        <mxCell id="6fJdbJP1uXo22ZdgHqnH-231" value="&lt;div style=&quot;text-align: left;&quot;&gt;&lt;b&gt;&lt;span style=&quot;background-color: initial;&quot;&gt;ZSet（&lt;/span&gt;&lt;span style=&quot;background-color: initial; white-space: pre-wrap;&quot;&gt;&lt;font style=&quot;font-size: 12px;&quot; face=&quot;ui-sans-serif, -apple-system, system-ui, Segoe UI, Roboto, Ubuntu, Cantarell, Noto Sans, sans-serif, Helvetica, Apple Color Emoji, Arial, Segoe UI Emoji, Segoe UI Symbol&quot; color=&quot;#0d0d0d&quot;&gt;跳表&lt;/font&gt;&lt;/span&gt;&lt;span style=&quot;background-color: initial;&quot;&gt;）&lt;/span&gt;&lt;/b&gt;&lt;/div&gt;" style="shape=partialRectangle;html=1;whiteSpace=wrap;connectable=0;strokeColor=#d6b656;overflow=hidden;fillColor=#fff2cc;top=0;left=0;bottom=0;right=0;pointerEvents=1;" vertex="1" parent="6fJdbJP1uXo22ZdgHqnH-230">
          <mxGeometry width="190" height="30" as="geometry">
            <mxRectangle width="190" height="30" as="alternateBounds" />
          </mxGeometry>
        </mxCell>
        <mxCell id="6fJdbJP1uXo22ZdgHqnH-232" value="" style="shape=tableRow;horizontal=0;startSize=0;swimlaneHead=0;swimlaneBody=0;strokeColor=inherit;top=0;left=0;bottom=0;right=0;collapsible=0;dropTarget=0;fillColor=none;points=[[0,0.5],[1,0.5]];portConstraint=eastwest;whiteSpace=wrap;" vertex="1" parent="6fJdbJP1uXo22ZdgHqnH-229">
          <mxGeometry y="30" width="190" height="30" as="geometry" />
        </mxCell>
        <mxCell id="6fJdbJP1uXo22ZdgHqnH-233" value="OBJ_ZSET" style="shape=partialRectangle;html=1;connectable=0;strokeColor=#36393d;overflow=hidden;fillColor=#cce5ff;top=0;left=0;bottom=0;right=0;pointerEvents=1;" vertex="1" parent="6fJdbJP1uXo22ZdgHqnH-232">
          <mxGeometry width="190" height="30" as="geometry">
            <mxRectangle width="190" height="30" as="alternateBounds" />
          </mxGeometry>
        </mxCell>
        <mxCell id="6fJdbJP1uXo22ZdgHqnH-234" value="" style="shape=tableRow;horizontal=0;startSize=0;swimlaneHead=0;swimlaneBody=0;strokeColor=inherit;top=0;left=0;bottom=0;right=0;collapsible=0;dropTarget=0;fillColor=none;points=[[0,0.5],[1,0.5]];portConstraint=eastwest;" vertex="1" parent="6fJdbJP1uXo22ZdgHqnH-229">
          <mxGeometry y="60" width="190" height="30" as="geometry" />
        </mxCell>
        <mxCell id="6fJdbJP1uXo22ZdgHqnH-235" value="&lt;span style=&quot;white-space: nowrap;&quot;&gt;OBJ_ENCODING_SKIPLIST&lt;/span&gt;" style="shape=partialRectangle;html=1;whiteSpace=wrap;connectable=0;strokeColor=#36393d;overflow=hidden;fillColor=#cdeb8b;top=0;left=0;bottom=0;right=0;pointerEvents=1;" vertex="1" parent="6fJdbJP1uXo22ZdgHqnH-234">
          <mxGeometry width="190" height="30" as="geometry">
            <mxRectangle width="190" height="30" as="alternateBounds" />
          </mxGeometry>
        </mxCell>
        <mxCell id="6fJdbJP1uXo22ZdgHqnH-236" style="shape=tableRow;horizontal=0;startSize=0;swimlaneHead=0;swimlaneBody=0;strokeColor=inherit;top=0;left=0;bottom=0;right=0;collapsible=0;dropTarget=0;fillColor=none;points=[[0,0.5],[1,0.5]];portConstraint=eastwest;" vertex="1" parent="6fJdbJP1uXo22ZdgHqnH-229">
          <mxGeometry y="90" width="190" height="30" as="geometry" />
        </mxCell>
        <mxCell id="6fJdbJP1uXo22ZdgHqnH-237" value="void *ptr" style="shape=partialRectangle;html=1;whiteSpace=wrap;connectable=0;strokeColor=inherit;overflow=hidden;fillColor=none;top=0;left=0;bottom=0;right=0;pointerEvents=1;" vertex="1" parent="6fJdbJP1uXo22ZdgHqnH-236">
          <mxGeometry width="190" height="30" as="geometry">
            <mxRectangle width="190" height="30" as="alternateBounds" />
          </mxGeometry>
        </mxCell>
        <mxCell id="6fJdbJP1uXo22ZdgHqnH-252" value="" style="shape=table;startSize=0;container=1;collapsible=0;childLayout=tableLayout;whiteSpace=wrap;" vertex="1" parent="1">
          <mxGeometry x="1200" y="60" width="190" height="120" as="geometry" />
        </mxCell>
        <mxCell id="6fJdbJP1uXo22ZdgHqnH-253" value="" style="shape=tableRow;horizontal=0;startSize=0;swimlaneHead=0;swimlaneBody=0;strokeColor=inherit;top=0;left=0;bottom=0;right=0;collapsible=0;dropTarget=0;fillColor=none;points=[[0,0.5],[1,0.5]];portConstraint=eastwest;fontStyle=1" vertex="1" parent="6fJdbJP1uXo22ZdgHqnH-252">
          <mxGeometry width="190" height="30" as="geometry" />
        </mxCell>
        <mxCell id="6fJdbJP1uXo22ZdgHqnH-254" value="&lt;b&gt;String（SDS，动态字符）&lt;/b&gt;" style="shape=partialRectangle;html=1;whiteSpace=wrap;connectable=0;strokeColor=#d6b656;overflow=hidden;fillColor=#fff2cc;top=0;left=0;bottom=0;right=0;pointerEvents=1;" vertex="1" parent="6fJdbJP1uXo22ZdgHqnH-253">
          <mxGeometry width="190" height="30" as="geometry">
            <mxRectangle width="190" height="30" as="alternateBounds" />
          </mxGeometry>
        </mxCell>
        <mxCell id="6fJdbJP1uXo22ZdgHqnH-255" value="" style="shape=tableRow;horizontal=0;startSize=0;swimlaneHead=0;swimlaneBody=0;strokeColor=inherit;top=0;left=0;bottom=0;right=0;collapsible=0;dropTarget=0;fillColor=none;points=[[0,0.5],[1,0.5]];portConstraint=eastwest;whiteSpace=wrap;" vertex="1" parent="6fJdbJP1uXo22ZdgHqnH-252">
          <mxGeometry y="30" width="190" height="30" as="geometry" />
        </mxCell>
        <mxCell id="6fJdbJP1uXo22ZdgHqnH-256" value="OBJ_STRING" style="shape=partialRectangle;html=1;connectable=0;strokeColor=#36393d;overflow=hidden;fillColor=#cce5ff;top=0;left=0;bottom=0;right=0;pointerEvents=1;" vertex="1" parent="6fJdbJP1uXo22ZdgHqnH-255">
          <mxGeometry width="190" height="30" as="geometry">
            <mxRectangle width="190" height="30" as="alternateBounds" />
          </mxGeometry>
        </mxCell>
        <mxCell id="6fJdbJP1uXo22ZdgHqnH-257" value="" style="shape=tableRow;horizontal=0;startSize=0;swimlaneHead=0;swimlaneBody=0;strokeColor=inherit;top=0;left=0;bottom=0;right=0;collapsible=0;dropTarget=0;fillColor=none;points=[[0,0.5],[1,0.5]];portConstraint=eastwest;" vertex="1" parent="6fJdbJP1uXo22ZdgHqnH-252">
          <mxGeometry y="60" width="190" height="30" as="geometry" />
        </mxCell>
        <mxCell id="6fJdbJP1uXo22ZdgHqnH-258" value="OBJ_ENCODING_RAW" style="shape=partialRectangle;html=1;whiteSpace=wrap;connectable=0;strokeColor=#36393d;overflow=hidden;fillColor=#cdeb8b;top=0;left=0;bottom=0;right=0;pointerEvents=1;" vertex="1" parent="6fJdbJP1uXo22ZdgHqnH-257">
          <mxGeometry width="190" height="30" as="geometry">
            <mxRectangle width="190" height="30" as="alternateBounds" />
          </mxGeometry>
        </mxCell>
        <mxCell id="6fJdbJP1uXo22ZdgHqnH-259" style="shape=tableRow;horizontal=0;startSize=0;swimlaneHead=0;swimlaneBody=0;strokeColor=inherit;top=0;left=0;bottom=0;right=0;collapsible=0;dropTarget=0;fillColor=none;points=[[0,0.5],[1,0.5]];portConstraint=eastwest;" vertex="1" parent="6fJdbJP1uXo22ZdgHqnH-252">
          <mxGeometry y="90" width="190" height="30" as="geometry" />
        </mxCell>
        <mxCell id="6fJdbJP1uXo22ZdgHqnH-260" value="void *ptr" style="shape=partialRectangle;html=1;whiteSpace=wrap;connectable=0;strokeColor=inherit;overflow=hidden;fillColor=none;top=0;left=0;bottom=0;right=0;pointerEvents=1;" vertex="1" parent="6fJdbJP1uXo22ZdgHqnH-259">
          <mxGeometry width="190" height="30" as="geometry">
            <mxRectangle width="190" height="30" as="alternateBounds" />
          </mxGeometry>
        </mxCell>
        <mxCell id="6fJdbJP1uXo22ZdgHqnH-265" value="" style="shape=table;startSize=0;container=1;collapsible=0;childLayout=tableLayout;whiteSpace=wrap;" vertex="1" parent="1">
          <mxGeometry x="990" y="198" width="190" height="120" as="geometry" />
        </mxCell>
        <mxCell id="6fJdbJP1uXo22ZdgHqnH-266" value="" style="shape=tableRow;horizontal=0;startSize=0;swimlaneHead=0;swimlaneBody=0;strokeColor=inherit;top=0;left=0;bottom=0;right=0;collapsible=0;dropTarget=0;fillColor=none;points=[[0,0.5],[1,0.5]];portConstraint=eastwest;fontStyle=1" vertex="1" parent="6fJdbJP1uXo22ZdgHqnH-265">
          <mxGeometry width="190" height="30" as="geometry" />
        </mxCell>
        <mxCell id="6fJdbJP1uXo22ZdgHqnH-267" value="&lt;b&gt;List（quicklist）&lt;/b&gt;" style="shape=partialRectangle;html=1;whiteSpace=wrap;connectable=0;strokeColor=#d6b656;overflow=hidden;fillColor=#fff2cc;top=0;left=0;bottom=0;right=0;pointerEvents=1;" vertex="1" parent="6fJdbJP1uXo22ZdgHqnH-266">
          <mxGeometry width="190" height="30" as="geometry">
            <mxRectangle width="190" height="30" as="alternateBounds" />
          </mxGeometry>
        </mxCell>
        <mxCell id="6fJdbJP1uXo22ZdgHqnH-268" value="" style="shape=tableRow;horizontal=0;startSize=0;swimlaneHead=0;swimlaneBody=0;strokeColor=inherit;top=0;left=0;bottom=0;right=0;collapsible=0;dropTarget=0;fillColor=none;points=[[0,0.5],[1,0.5]];portConstraint=eastwest;whiteSpace=wrap;" vertex="1" parent="6fJdbJP1uXo22ZdgHqnH-265">
          <mxGeometry y="30" width="190" height="30" as="geometry" />
        </mxCell>
        <mxCell id="6fJdbJP1uXo22ZdgHqnH-269" value="OBJ_STRING" style="shape=partialRectangle;html=1;connectable=0;strokeColor=#36393d;overflow=hidden;fillColor=#cce5ff;top=0;left=0;bottom=0;right=0;pointerEvents=1;" vertex="1" parent="6fJdbJP1uXo22ZdgHqnH-268">
          <mxGeometry width="190" height="30" as="geometry">
            <mxRectangle width="190" height="30" as="alternateBounds" />
          </mxGeometry>
        </mxCell>
        <mxCell id="6fJdbJP1uXo22ZdgHqnH-270" value="" style="shape=tableRow;horizontal=0;startSize=0;swimlaneHead=0;swimlaneBody=0;strokeColor=inherit;top=0;left=0;bottom=0;right=0;collapsible=0;dropTarget=0;fillColor=none;points=[[0,0.5],[1,0.5]];portConstraint=eastwest;" vertex="1" parent="6fJdbJP1uXo22ZdgHqnH-265">
          <mxGeometry y="60" width="190" height="30" as="geometry" />
        </mxCell>
        <mxCell id="6fJdbJP1uXo22ZdgHqnH-271" value="OBJ_ENCODING_QUICKLIST" style="shape=partialRectangle;html=1;whiteSpace=wrap;connectable=0;strokeColor=#36393d;overflow=hidden;fillColor=#cdeb8b;top=0;left=0;bottom=0;right=0;pointerEvents=1;" vertex="1" parent="6fJdbJP1uXo22ZdgHqnH-270">
          <mxGeometry width="190" height="30" as="geometry">
            <mxRectangle width="190" height="30" as="alternateBounds" />
          </mxGeometry>
        </mxCell>
        <mxCell id="6fJdbJP1uXo22ZdgHqnH-272" style="shape=tableRow;horizontal=0;startSize=0;swimlaneHead=0;swimlaneBody=0;strokeColor=inherit;top=0;left=0;bottom=0;right=0;collapsible=0;dropTarget=0;fillColor=none;points=[[0,0.5],[1,0.5]];portConstraint=eastwest;" vertex="1" parent="6fJdbJP1uXo22ZdgHqnH-265">
          <mxGeometry y="90" width="190" height="30" as="geometry" />
        </mxCell>
        <mxCell id="6fJdbJP1uXo22ZdgHqnH-273" value="void *ptr" style="shape=partialRectangle;html=1;whiteSpace=wrap;connectable=0;strokeColor=inherit;overflow=hidden;fillColor=none;top=0;left=0;bottom=0;right=0;pointerEvents=1;" vertex="1" parent="6fJdbJP1uXo22ZdgHqnH-272">
          <mxGeometry width="190" height="30" as="geometry">
            <mxRectangle width="190" height="30" as="alternateBounds" />
          </mxGeometry>
        </mxCell>
      </root>
    </mxGraphModel>
  </diagram>
</mxfile>
